# xmcd CD database file
#
# Track frame offsets:
#	150
#	19711
#	34562
#	51910
#	71872
#	91938
#	111988
#	131121
#	157598
#	177478
#	202713
#	224044
#	240439
#	261655
#	286783
#	309390
#
# Disc length: 4520 seconds
#
# Revision: 0
# Processed by: cddbd v1.5.2PL0 Copyright (c) Steve Scherf et al.
# Submitted via: CDex 1.70beta2
#
DISCID=e311a610
DTITLE=Verschiedene - Dinner for two
DYEAR=2009
DGENRE=Jazz
TTITLE0=Just to be loved - Al Jarreau
TTITLE1=Isn't sh lovely - David Sandborn
TTITLE2=Let's get started - Brian Culbertson
TTITLE3=To the max - Gerald Albright
TTITLE4=Melrose Diner - Richard Elliot
TTITLE5=Lift of - Groove Collective
TTITLE6=Say love - Jeff Lorber
TTITLE7=After hours (The Antidote) - Ronny Jordan
TTITLE8=Georgia Peach -Acoustic Alchemy
TTITLE9=Unity - Marc Antonie
TTITLE10=Catchin' the sun - Spyro Gyra
TTITLE11=The daydream - Tok Tok Tok
TTITLE12=Death by Chocolate - De-Phazz
TTITLE13=Miles after dark - David Benoit
TTITLE14=Irresistible Bliss - Chris Botti
TTITLE15=Deep Waters - Incognito
EXTD=YEAR: 2009
EXTT0=
EXTT1=
EXTT2=
EXTT3=
EXTT4=
EXTT5=
EXTT6=
EXTT7=
EXTT8=
EXTT9=
EXTT10=
EXTT11=
EXTT12=
EXTT13=
EXTT14=
EXTT15=
PLAYORDER=
